<?xml version="1.0" encoding="utf-8"?>
<!-- Generator: Adobe Illustrator 24.1.3, SVG Export Plug-In . SVG Version: 6.00 Build 0)  -->
<svg version="1.1" id="a6b71ce8-1228-4f6e-b611-24df484bea00"
	 xmlns="http://www.w3.org/2000/svg" xmlns:xlink="http://www.w3.org/1999/xlink" x="0px" y="0px" width="146.9px" height="72px"
	 viewBox="0 0 146.9 72" style="enable-background:new 0 0 146.9 72;" xml:space="preserve">
<style type="text/css">
	.st0{fill:#3F4444;}
	.st1{fill:#009CB6;}
</style>
<g id="bec0550e-9862-4d6e-99fe-e62925487468">
	<path class="st0" d="M84.8,34.2h-8.4L74.8,38h-4.3L78.6,20h4.1L90.8,38h-4.4L84.8,34.2z M83.5,31l-2.9-6.9L77.8,31H83.5z
		 M108.5,26.5c0,4-3,6.5-7.8,6.5H97v5h-4.2V20h7.8C105.5,20,108.5,22.5,108.5,26.5L108.5,26.5z M104.3,26.5c0-2-1.3-3.1-3.8-3.1H97
		v6.3h3.4C103,29.6,104.3,28.5,104.3,26.5L104.3,26.5z M114.8,23.4H109V20h15.7v3.4h-5.8V38h-4.2V23.4z M136.7,34.2h-8.4l-1.6,3.9
		h-4.3l8.1-18.1h4.1l8.1,18.1h-4.4L136.7,34.2z M146.2,35.6c0.2,0.1,0.4,0.3,0.5,0.5c0.2,0.4,0.2,1,0,1.4c-0.1,0.2-0.3,0.4-0.5,0.5
		c-0.4,0.2-1,0.2-1.4,0c-0.2-0.1-0.4-0.3-0.5-0.5c-0.2-0.4-0.2-1,0-1.4c0.1-0.2,0.3-0.4,0.5-0.5C145.2,35.3,145.7,35.3,146.2,35.6z
		 M146.1,37.9c0.2-0.1,0.3-0.3,0.4-0.5c0.2-0.4,0.2-0.9,0-1.3c-0.1-0.2-0.3-0.3-0.4-0.4c-0.4-0.2-0.9-0.2-1.3,0
		c-0.2,0.1-0.3,0.3-0.4,0.5c-0.2,0.4-0.2,0.9,0,1.3c0.1,0.2,0.3,0.3,0.4,0.5C145.2,38.1,145.7,38.1,146.1,37.9z M146,36.8
		c0,0.1-0.1,0.1-0.2,0.1l0.3,0.4h-0.2l-0.3-0.4h-0.3v0.4H145v-1.3h0.5c0.1,0,0.3,0,0.4,0.1c0.1,0.1,0.1,0.2,0.1,0.3
		C146,36.7,146,36.8,146,36.8L146,36.8z M145.7,36.8c0.1,0,0.1-0.1,0.1-0.2c0-0.1,0-0.1-0.1-0.2c-0.1,0-0.2-0.1-0.2-0.1h-0.3v0.5
		h0.3C145.6,36.8,145.7,36.8,145.7,36.8z M135.4,31l-2.9-6.9l-2.9,6.9H135.4z M71,47.6h-3.7l-0.8,1.7h-1l3.1-6.9h1l3.1,6.9h-1
		L71,47.6z M70.6,46.8l-1.5-3.4l-1.5,3.4H70.6z M82.3,46.3v3h-1v-2.9c0-1-0.5-1.5-1.4-1.5c-0.8,0-1.6,0.6-1.6,1.5c0,0.1,0,0.2,0,0.3
		v2.7h-1v-2.9c0-1-0.5-1.5-1.4-1.5c-0.8,0-1.6,0.6-1.6,1.5c0,0.1,0,0.2,0,0.3v2.7h-1v-5.2h0.9v0.8c0.4-0.6,1.1-0.9,1.8-0.8
		c0.7-0.1,1.5,0.3,1.8,1c0.5-0.6,1.2-1,2-1c1.1-0.1,2.1,0.7,2.2,1.9C82.3,46,82.3,46.2,82.3,46.3L82.3,46.3z M88.6,47h-4.3
		c0.1,0.9,1,1.6,1.9,1.5c0.6,0,1.1-0.2,1.5-0.6l0.5,0.6c-1.1,1.1-2.9,1.1-4,0c-0.5-0.5-0.8-1.2-0.8-1.9c-0.1-1.4,1-2.6,2.5-2.7
		c0.1,0,0.1,0,0.2,0c1.4,0,2.6,1.1,2.6,2.5c0,0.1,0,0.2,0,0.2C88.6,46.8,88.6,46.9,88.6,47L88.6,47z M84.3,46.3h3.4
		c-0.1-0.9-0.9-1.6-1.9-1.5C85,44.9,84.4,45.6,84.3,46.3z M92.5,44V45c-0.1,0-0.1,0-0.2,0c-0.9-0.1-1.6,0.6-1.7,1.5
		c0,0.1,0,0.2,0,0.3v2.6h-1v-5.2h0.9V45C91,44.3,91.8,44,92.5,44L92.5,44z M93.3,42.5c0-0.3,0.3-0.6,0.6-0.6c0,0,0,0,0,0
		c0.3,0,0.6,0.3,0.6,0.6c0,0.3-0.3,0.6-0.6,0.6C93.5,43.1,93.3,42.8,93.3,42.5z M93.4,44.1h1v5.2h-1V44.1z M95.5,46.7
		c0-1.4,1.1-2.6,2.6-2.7c0.1,0,0.1,0,0.2,0c0.9-0.1,1.7,0.4,2.1,1.1l-0.7,0.5c-0.3-0.5-0.9-0.8-1.4-0.8c-1,0-1.8,0.9-1.8,1.9
		c0,1,0.8,1.8,1.8,1.8c0.6,0,1.1-0.3,1.4-0.8l0.7,0.5c-0.4,0.7-1.3,1.2-2.1,1.1c-1.5,0.1-2.7-1-2.8-2.5
		C95.5,46.8,95.5,46.8,95.5,46.7L95.5,46.7z M105.7,46.2v3.2h-0.9v-0.7c-0.4,0.5-1.1,0.8-1.7,0.8c-1.2,0-1.9-0.6-1.9-1.5
		c0-0.8,0.5-1.5,2.1-1.5h1.5v-0.2c0-0.8-0.5-1.3-1.4-1.3c-0.6,0-1.2,0.2-1.7,0.6l-0.4-0.7c0.6-0.5,1.4-0.7,2.2-0.7
		C104.9,44,105.7,44.7,105.7,46.2L105.7,46.2z M104.7,47.7V47h-1.5c-0.9,0-1.2,0.4-1.2,0.8c0,0.5,0.4,0.9,1.2,0.9
		C103.9,48.7,104.5,48.3,104.7,47.7L104.7,47.7z M112.2,46.3v3h-1v-2.9c0-1-0.5-1.5-1.4-1.5c-0.9-0.1-1.6,0.6-1.7,1.4
		c0,0.1,0,0.2,0,0.3v2.7h-1v-5.2h0.9v0.8c0.5-0.6,1.2-0.9,1.9-0.8c1.1-0.1,2.1,0.7,2.2,1.9C112.2,46,112.2,46.2,112.2,46.3
		L112.2,46.3z M67,56.1c0,1.5-1.1,2.4-2.9,2.4h-1.7v2.1h-1v-6.9h2.7C65.9,53.7,67,54.6,67,56.1L67,56.1z M66,56.1
		c0-1-0.7-1.6-1.9-1.6h-1.7v3.1h1.7C65.4,57.7,66,57.1,66,56.1L66,56.1z M73.1,57.6v3h-1v-2.9c0-1-0.5-1.5-1.4-1.5
		c-0.9-0.1-1.6,0.6-1.7,1.4c0,0.1,0,0.2,0,0.3v2.7h-1v-7.3h1v2.8c0.5-0.5,1.1-0.8,1.9-0.8c1.1-0.1,2.1,0.7,2.2,1.9
		C73.1,57.3,73.1,57.5,73.1,57.6L73.1,57.6z M79.1,55.4l-2.5,5.8c-0.5,1.1-1.1,1.5-1.9,1.5c-0.5,0-1-0.2-1.3-0.5l0.4-0.7
		c0.3,0.2,0.6,0.4,0.9,0.4c0.5,0,0.7-0.2,1-0.8l0.2-0.4l-2.3-5.2h1l1.8,4.2l1.8-4.2L79.1,55.4z M79.2,60.1l0.4-0.8
		c0.5,0.4,1.2,0.5,1.8,0.5c0.9,0,1.2-0.3,1.2-0.7c0-1.2-3.3-0.2-3.3-2.2c0-0.9,0.8-1.6,2.2-1.6c0.7,0,1.3,0.2,1.9,0.5l-0.4,0.8
		c-0.5-0.3-1-0.4-1.5-0.4c-0.8,0-1.2,0.3-1.2,0.7c0,1.2,3.3,0.2,3.3,2.3c0,1-0.9,1.6-2.3,1.6C80.6,60.7,79.8,60.5,79.2,60.1
		L79.2,60.1z M84.5,53.8c0-0.3,0.3-0.6,0.6-0.6c0,0,0,0,0,0c0.3,0,0.6,0.3,0.6,0.6c0,0.3-0.3,0.6-0.6,0.6
		C84.8,54.4,84.5,54.1,84.5,53.8z M84.7,55.4h1v5.2h-1V55.4z M86.7,58c0-1.4,1.1-2.6,2.6-2.7c0.1,0,0.1,0,0.2,0
		c0.9-0.1,1.7,0.4,2.1,1.1l-0.7,0.5c-0.3-0.5-0.9-0.8-1.4-0.8c-1,0-1.8,0.9-1.8,1.9c0,1,0.8,1.8,1.8,1.8c0.6,0,1.1-0.3,1.4-0.8
		l0.7,0.5c-0.4,0.7-1.3,1.2-2.1,1.1c-1.5,0.1-2.7-1-2.8-2.5C86.7,58.1,86.7,58.1,86.7,58L86.7,58z M96.9,57.5v3.2H96v-0.7
		c-0.4,0.5-1.1,0.8-1.7,0.8c-1.2,0-1.9-0.6-1.9-1.5c0-0.8,0.5-1.5,2.1-1.5H96v-0.2c0-0.8-0.5-1.3-1.4-1.3c-0.6,0-1.2,0.2-1.7,0.6
		L92.5,56c0.6-0.5,1.4-0.7,2.2-0.7C96.1,55.3,96.9,56,96.9,57.5L96.9,57.5z M96,59v-0.7h-1.5c-0.9,0-1.2,0.4-1.2,0.8
		c0,0.5,0.4,0.9,1.2,0.9C95.1,60,95.7,59.6,96,59L96,59z M98.4,53.3h1v7.3h-1V53.3z M105.4,54.6H103v-0.9h5.7v0.9h-2.4v6.1h-1
		L105.4,54.6z M114.5,57.6v3h-1v-2.9c0-1-0.5-1.5-1.4-1.5c-0.9-0.1-1.6,0.6-1.7,1.4c0,0.1,0,0.2,0,0.3v2.7h-1v-7.3h1v2.8
		c0.5-0.5,1.1-0.8,1.9-0.8c1.1-0.1,2.1,0.7,2.2,1.9C114.5,57.3,114.5,57.5,114.5,57.6L114.5,57.6z M120.8,58.3h-4.3
		c0.1,0.9,1,1.6,1.9,1.5c0.6,0,1.1-0.2,1.5-0.6l0.5,0.6c-1.1,1.1-2.9,1.1-4,0c-0.5-0.5-0.8-1.2-0.8-1.9c-0.1-1.4,1-2.6,2.5-2.7
		c0.1,0,0.1,0,0.2,0c1.4,0,2.6,1.1,2.6,2.5c0,0.1,0,0.2,0,0.2C120.8,58.1,120.8,58.2,120.8,58.3L120.8,58.3z M116.5,57.6h3.4
		c-0.1-0.9-0.9-1.6-1.9-1.5C117.3,56.2,116.6,56.9,116.5,57.6z M124.8,55.3v0.9c-0.1,0-0.1,0-0.2,0c-0.9-0.1-1.6,0.6-1.7,1.5
		c0,0.1,0,0.2,0,0.3v2.6h-1v-5.2h0.9v0.9C123.3,55.6,124,55.3,124.8,55.3L124.8,55.3z M130,57.5v3.2h-0.9v-0.7
		c-0.4,0.5-1.1,0.8-1.7,0.8c-1.2,0-1.9-0.6-1.9-1.5c0-0.8,0.5-1.5,2.1-1.5h1.5v-0.2c0-0.8-0.5-1.3-1.4-1.3c-0.6,0-1.2,0.2-1.7,0.6
		l-0.4-0.7c0.6-0.5,1.4-0.7,2.2-0.7C129.2,55.3,130,56,130,57.5L130,57.5z M129,59v-0.7h-1.5c-0.9,0-1.2,0.4-1.2,0.8
		c0,0.5,0.4,0.9,1.2,0.9C128.2,60,128.8,59.6,129,59L129,59z M136.9,58c0.1,1.4-1,2.6-2.4,2.7c-0.1,0-0.2,0-0.2,0
		c-0.7,0-1.4-0.3-1.8-0.9v2.7h-1v-7.2h0.9v0.8c0.4-0.6,1.1-0.9,1.9-0.9c1.4-0.1,2.6,1,2.7,2.4C136.9,57.9,136.9,57.9,136.9,58
		L136.9,58z M135.9,58c0-1-0.9-1.7-1.8-1.7c-1,0-1.7,0.9-1.7,1.8c0,0.9,0.8,1.7,1.8,1.7c1,0,1.8-0.7,1.8-1.7
		C136,58.1,136,58.1,135.9,58L135.9,58z M142.6,55.4l-2.5,5.8c-0.5,1.1-1.1,1.5-1.9,1.5c-0.5,0-1-0.2-1.3-0.5l0.4-0.7
		c0.3,0.2,0.6,0.4,0.9,0.4c0.5,0,0.7-0.2,1-0.8l0.2-0.4l-2.3-5.2h1l1.8,4.2l1.8-4.2L142.6,55.4z M60.8,70.2h-3.7l-0.8,1.7h-1
		l3.1-6.9h1l3.1,6.9h-1L60.8,70.2z M60.4,69.4L58.9,66l-1.5,3.4H60.4z M63,71.4l0.4-0.8c0.5,0.4,1.2,0.5,1.8,0.5
		c0.9,0,1.2-0.3,1.2-0.7c0-1.2-3.3-0.2-3.3-2.2c0-0.9,0.8-1.6,2.2-1.6c0.7,0,1.3,0.2,1.9,0.5l-0.4,0.8c-0.5-0.3-1-0.4-1.5-0.4
		c-0.8,0-1.2,0.3-1.2,0.7c0,1.2,3.3,0.2,3.3,2.3c0,1-0.9,1.6-2.3,1.6C64.4,72,63.6,71.8,63,71.4L63,71.4z M67.9,71.4l0.4-0.8
		c0.5,0.4,1.2,0.5,1.8,0.5c0.9,0,1.2-0.3,1.2-0.7c0-1.2-3.3-0.2-3.3-2.2c0-0.9,0.8-1.6,2.2-1.6c0.7,0,1.3,0.2,1.9,0.5l-0.4,0.8
		c-0.5-0.3-1-0.4-1.5-0.4c-0.8,0-1.2,0.3-1.2,0.7c0,1.2,3.3,0.2,3.3,2.3c0,1-0.9,1.6-2.3,1.6C69.3,72,68.5,71.8,67.9,71.4L67.9,71.4
		z M73,69.3c0-1.5,1.2-2.7,2.7-2.8c1.5,0,2.7,1.2,2.8,2.7c0,1.5-1.2,2.7-2.7,2.8c0,0,0,0,0,0c-1.4,0.1-2.7-1-2.7-2.5
		C73,69.4,73,69.4,73,69.3L73,69.3z M77.5,69.3c0-1-0.9-1.7-1.8-1.7c-1,0-1.7,0.9-1.7,1.8c0,0.9,0.8,1.7,1.8,1.7
		c1,0,1.7-0.7,1.8-1.7C77.5,69.4,77.5,69.4,77.5,69.3L77.5,69.3z M79.2,69.3c0-1.4,1.1-2.6,2.6-2.7c0.1,0,0.1,0,0.2,0
		c0.9-0.1,1.7,0.4,2.1,1.1l-0.7,0.5c-0.3-0.5-0.9-0.8-1.4-0.8c-1,0-1.8,0.9-1.8,1.9c0,1,0.8,1.8,1.8,1.8c0.6,0,1.1-0.3,1.4-0.8
		l0.7,0.5c-0.4,0.7-1.3,1.2-2.1,1.1c-1.5,0.1-2.7-1-2.8-2.5C79.2,69.5,79.2,69.4,79.2,69.3L79.2,69.3z M84.9,65.1
		c0-0.3,0.3-0.6,0.6-0.6c0,0,0,0,0,0c0.3,0,0.6,0.3,0.6,0.6c0,0.3-0.3,0.6-0.6,0.6C85.2,65.7,84.9,65.4,84.9,65.1z M85.1,66.7h1v5.2
		h-1V66.7z M91.7,68.8v3.2h-0.9v-0.7c-0.4,0.5-1.1,0.8-1.7,0.8c-1.2,0-1.9-0.6-1.9-1.5c0-0.8,0.5-1.5,2.1-1.5h1.5v-0.2
		c0-0.8-0.5-1.3-1.4-1.3c-0.6,0-1.2,0.2-1.7,0.6l-0.4-0.7c0.6-0.5,1.4-0.7,2.2-0.7C90.9,66.6,91.7,67.3,91.7,68.8L91.7,68.8z
		 M90.8,70.3v-0.7h-1.5c-0.9,0-1.2,0.4-1.2,0.8c0,0.5,0.4,0.9,1.2,0.9C89.9,71.3,90.5,70.9,90.8,70.3L90.8,70.3z M96.1,71.6
		C95.8,71.9,95.4,72,95,72c-0.8,0.1-1.6-0.5-1.7-1.3c0-0.1,0-0.2,0-0.3v-2.9h-0.9v-0.8h0.9v-1.1h1v1.1h1.5v0.8h-1.5v2.8
		c-0.1,0.4,0.2,0.8,0.7,0.9c0.1,0,0.1,0,0.2,0c0.3,0,0.5-0.1,0.7-0.2L96.1,71.6z M96.9,65.1c0-0.3,0.3-0.6,0.6-0.6c0,0,0,0,0,0
		c0.3,0,0.6,0.3,0.6,0.6c0,0.3-0.3,0.6-0.6,0.6C97.1,65.7,96.9,65.4,96.9,65.1z M97,66.7h1v5.2h-1V66.7z M99.1,69.3
		c0-1.5,1.2-2.7,2.7-2.8c1.5,0,2.7,1.2,2.8,2.7c0,1.5-1.2,2.7-2.7,2.8c0,0,0,0,0,0c-1.4,0.1-2.7-1-2.7-2.5
		C99.1,69.4,99.1,69.4,99.1,69.3L99.1,69.3z M103.6,69.3c0-1-0.9-1.7-1.8-1.7c-1,0-1.7,0.9-1.7,1.8c0,0.9,0.8,1.7,1.8,1.7
		c1,0,1.7-0.7,1.8-1.7C103.6,69.4,103.6,69.4,103.6,69.3L103.6,69.3z M110.6,68.9v3h-1V69c0-1-0.5-1.5-1.4-1.5
		c-0.9-0.1-1.6,0.6-1.7,1.4c0,0.1,0,0.2,0,0.3v2.7h-1v-5.2h0.9v0.8c0.5-0.6,1.2-0.9,1.9-0.8c1.1-0.1,2.1,0.7,2.2,1.9
		C110.7,68.6,110.7,68.8,110.6,68.9L110.6,68.9z"/>
	<path class="st1" d="M57.5,43.1L23.3,27c1.1-0.2,2.2-0.3,3.3-0.5c2.5-0.4,5.1-0.3,7.6,0.2l27.3,7.4C61.5,34.1,57.5,43.1,57.5,43.1z
		 M67.9,20c0.1-0.1-16.3,0.2-16.4,0.2c-2.8,0.1-5.6,0.6-8.2,1.7c-2.1,0.8-4,1.5-6,2.2l26.2,5.9C63.4,29.9,67.8,20.1,67.9,20z
		 M53.7,16.9l15.8-0.7c7-15.6,7.3-16.3,7.3-16.2C69.9,6.6,62.1,12.3,53.7,16.9z M19.5,29.1c-2-1-4.2-1.4-6.5-1.4c-0.8,0-1.6,0-2.3,0
		l40.5,29.3l4-8.8L19.5,29.1z M0,26.3L44.5,72l4.2-9.2L6.4,29.1C4.5,27.7,2.3,26.8,0,26.3L0,26.3z"/>
</g>
</svg>
